<?xml version="1.0" encoding="UTF-8"?>
<svg id="Layer_1" xmlns="http://www.w3.org/2000/svg" version="1.1" xmlns:xlink="http://www.w3.org/1999/xlink" viewBox="0 0 2000 2000">
  <!-- Generator: Adobe Illustrator 29.1.0, SVG Export Plug-In . SVG Version: 2.1.0 Build 142)  -->
  <defs>
    <style>
      .st0 {
        fill: url(#linear-gradient1);
      }

      .st1 {
        fill: url(#linear-gradient);
      }
    </style>
    <linearGradient id="linear-gradient" x1="1000" y1="301.6" x2="1000" y2="1699.7" gradientUnits="userSpaceOnUse">
      <stop offset="0" stop-color="#e10600"/>
      <stop offset=".07" stop-color="#d1070b"/>
      <stop offset=".4" stop-color="#850f44"/>
      <stop offset=".68" stop-color="#4e156e"/>
      <stop offset=".89" stop-color="#2b1988"/>
      <stop offset="1" stop-color="#1f1b92"/>
    </linearGradient>
    <linearGradient id="linear-gradient1" x1="605.67" y1="704.06" x2="605.67" y2="1294.34" gradientUnits="userSpaceOnUse">
      <stop offset="0" stop-color="#e10600"/>
      <stop offset=".11" stop-color="#bb0a1c"/>
      <stop offset=".27" stop-color="#8c0f3f"/>
      <stop offset=".42" stop-color="#64135d"/>
      <stop offset=".57" stop-color="#461674"/>
      <stop offset=".72" stop-color="#301984"/>
      <stop offset=".87" stop-color="#231a8e"/>
      <stop offset="1" stop-color="#1f1b92"/>
    </linearGradient>
  </defs>
  <path class="st1" d="M1651.04,558.99c-28.35-77.28-67.65-139.11-116.81-183.78-62.34-56.65-140.06-85.38-231-85.38-46.73,0-90.62,8.7-130.46,25.84-33.87,14.58-65.11,35.38-92.88,61.84-24.66,23.55-51.49,44.06-79.89,61.09-28.28-16.98-54.94-37.38-79.9-61.19-.43-.41-.87-.8-1.32-1.15-27.42-25.86-58.21-46.24-91.55-60.59-39.84-17.14-83.74-25.84-130.46-25.84-90.94,0-168.66,28.73-231.01,85.38-49.16,44.67-88.45,106.5-116.8,183.78-47.47,129.38-48.01,256.64-48.01,261.99,0,365.45,171.91,649.82,316.11,824,17.57,21.26,39.55,38.65,63.57,50.28,20.34,9.85,40.9,14.9,60.29,14.9,5.34,0,10.58-.38,15.71-1.15,34.59-5.18,61.85-27.83,76.74-63.78,16.12-38.89,30.7-86.23,44.79-132.03,17.93-58.24,36.46-118.47,58.33-162.43,21.29-42.81,42.07-63.61,63.51-63.61s42.2,20.81,63.49,63.62c21.87,43.97,40.42,104.21,58.35,162.46,14.09,45.77,28.67,93.11,44.78,131.99,14.89,35.94,42.14,58.59,76.71,63.78,5.14.77,10.39,1.15,15.73,1.15,19.39,0,39.94-5.04,60.28-14.9,24.02-11.62,46-29.01,63.58-50.26,144.22-174.2,316.13-458.57,316.13-824.02,0-5.35-.55-132.61-48.01-261.99ZM1347.48,1615.67c-27.05,32.72-67.07,52.39-97.32,47.85-18.51-2.78-32.32-14.86-41.05-35.9-15.28-36.87-28.89-81.1-43.31-127.92-18.47-60.01-37.58-122.07-61.12-169.41-13.43-27-27.23-47.15-42.19-61.6-18.57-17.95-39.19-27.18-61.3-27.5h-.01c-.39-.02-.78-.03-1.18-.03s-.81.01-1.2.03c-22.11.32-42.73,9.55-61.3,27.49-14.96,14.45-28.76,34.6-42.19,61.6-23.55,47.33-42.64,109.38-61.11,169.39-14.42,46.83-28.03,91.07-43.32,127.95-8.72,21.04-22.54,33.12-41.07,35.9-30.26,4.53-70.26-15.13-97.3-47.85-139.4-168.38-305.56-442.93-305.56-794.67,0-1.24.65-125.41,45.57-247.19,58.25-157.91,160.61-237.98,304.25-237.98,74.93,0,139.39,25.22,191.59,74.96.4.39.82.75,1.24,1.09,42.96,40.71,91.23,72.74,143.5,95.23,62.06,26.7,130.51,40.24,203.46,40.24,12.7,0,23-10.3,23-23s-10.3-23-23-23c-68.64,0-131.95-12.83-189.45-38.29,22.69-15.44,44.29-32.93,64.53-52.27,52.2-49.74,116.65-74.96,191.59-74.96,143.63,0,246,80.07,304.25,237.98,44.92,121.78,45.57,245.95,45.57,247.17,0,351.76-166.17,626.31-305.57,794.69Z"/>
  <path class="st0" d="M518.26,927.67c-11.76,0-21.79-8.98-22.88-20.92-2.53-27.81-3.82-56.67-3.82-85.76,0-.8,1.1-83.89,25.56-166.5,42.59-143.84,121.2-174.03,179.64-174.03,12.7,0,23,10.3,23,23s-10.3,23-23,23c-61.9,0-107.37,47.03-135.14,139.77-22.53,75.24-24.03,152.83-24.06,154.85,0,27.67,1.22,55.09,3.63,81.5,1.15,12.65-8.17,23.84-20.82,24.99-.71.06-1.41.1-2.11.1Z"/>
</svg>