<?xml version="1.0" encoding="UTF-8"?>
<svg id="Layer_1" xmlns="http://www.w3.org/2000/svg" version="1.1" xmlns:xlink="http://www.w3.org/1999/xlink" viewBox="0 0 2000 2000">
  <!-- Generator: Adobe Illustrator 29.1.0, SVG Export Plug-In . SVG Version: 2.1.0 Build 142)  -->
  <defs>
    <style>
      .st0 {
        fill: url(#linear-gradient2);
      }

      .st1 {
        fill: url(#linear-gradient1);
      }

      .st2 {
        fill: url(#linear-gradient);
      }
    </style>
    <linearGradient id="linear-gradient" x1="1000" y1="185.06" x2="1000" y2="1861.53" gradientUnits="userSpaceOnUse">
      <stop offset=".13" stop-color="#e10600"/>
      <stop offset=".41" stop-color="#9e0d32"/>
      <stop offset=".82" stop-color="#431776"/>
      <stop offset="1" stop-color="#1f1b92"/>
    </linearGradient>
    <linearGradient id="linear-gradient1" x1="1000.64" y1="123.05" x2="1000.64" y2="1613.31" xlink:href="#linear-gradient"/>
    <linearGradient id="linear-gradient2" x1="997.24" y1="411.1" x2="997.24" y2="1354.59" gradientUnits="userSpaceOnUse">
      <stop offset=".13" stop-color="#e10600"/>
      <stop offset=".41" stop-color="#9e0d32"/>
      <stop offset=".82" stop-color="#431776"/>
      <stop offset="1" stop-color="#1f1b92"/>
    </linearGradient>
  </defs>
  <path class="st2" d="M1796.38,1191.3c-72.65-38.59-222.49,27.24-467.68,206.6-31.78-43.14-86.27-38.59-156.65-34.05-93.08,9.08-188.43,0-279.25-24.97-220.22-68.11-433.63-27.24-513.09-9.08v-27.24c0-43.14-34.05-79.46-79.46-79.46h-59.03c-43.14,0-79.46,34.05-79.46,79.46v467.68c0,43.14,34.05,77.19,79.46,79.46h59.03c43.14,0,77.19-34.05,79.46-79.46v-20.43c81.73,11.35,295.14,40.87,388.22,74.92l4.54,2.27c63.57,24.97,131.68,38.59,199.79,40.87h18.16c99.89-4.54,197.52-45.41,301.95-127.14,43.14-31.78,86.27-65.84,131.68-99.89l9.08-6.81c97.62-72.65,197.52-149.84,270.17-208.87,133.95-106.7,133.95-118.05,133.95-133.95v-4.54c2.27-18.16,4.54-70.38-40.87-95.35M1290.1,1504.6c-34.05,40.87-145.3,59.03-329.19,54.49h-122.6c-13.62,0-24.97,11.35-24.97,24.97s11.35,24.97,24.97,24.97h120.33c140.76,4.54,308.76,0,370.06-70.38,20.43-22.7,27.24-54.49,20.43-81.73,0-2.27-2.27-4.54-2.27-6.81,308.76-227.03,399.57-222.49,422.28-208.87,11.35,6.81,15.89,20.43,15.89,47.68h0c-22.7,31.78-238.38,197.52-383.68,308.76l-11.35,9.08c-43.14,34.05-88.54,68.11-129.41,97.62-215.68,165.73-358.71,115.78-472.22,77.19l-4.54-2.27c-102.16-34.05-324.65-65.84-406.38-77.19v-315.57c59.03-15.89,281.52-61.3,499.47,4.54,95.35,29.52,197.52,38.59,297.41,27.24,84-4.54,106.7-2.27,120.33,29.52v2.27c2.27,6.81,4.54,13.62,4.54,18.16,4.54,9.08,0,24.97-9.08,36.32M327.49,1302.55v467.68c0,15.89-11.35,27.24-27.24,27.24h-59.03c-15.89,0-27.24-11.35-27.24-27.24v-467.68c0-15.89,11.35-27.24,27.24-27.24h59.03c15.89,0,27.24,11.35,27.24,27.24"/>
  <path class="st1" d="M895.07,1186.76h211.14c145.3,0,263.36-118.05,263.36-263.35v-299.68c0-127.14-90.81-236.11-217.95-258.81,43.14-31.78,63.57-59.03,68.11-86.27,2.27-15.89-2.27-29.52-11.35-40.87-15.89-20.43-40.87-31.78-65.84-34.05-6.81,0-13.62,0-22.7,2.27,0-22.7-9.08-43.14-22.7-61.3-20.43-18.16-49.95-15.89-88.54,2.27-38.6-18.16-68.11-18.16-90.81,0-13.62,15.89-22.7,38.59-22.7,59.03-6.81-2.27-13.62-2.27-22.7-2.27-24.97,2.27-49.95,13.62-63.57,34.05-9.08,11.35-13.62,27.24-13.62,40.87,2.27,24.97,24.97,52.22,63.57,84v2.27c-129.41,18.16-227.03,129.41-227.03,261.08v301.95c0,143.03,118.05,258.82,263.35,258.82M845.12,269.56c6.81-9.08,15.89-13.62,27.24-15.89,13.62,0,27.24,6.81,36.32,15.89,9.08,9.08,24.97,11.35,36.32,0,6.81-6.81,9.08-15.89,6.81-24.97-9.08-27.24-9.08-56.76-2.27-61.3,2.27-2.27,13.62-2.27,45.41,13.62,6.81,4.54,15.89,4.54,22.7,0,31.78-15.89,43.14-13.62,45.41-13.62,6.81,4.54,6.81,34.05-2.27,61.3-4.54,13.62,4.54,27.24,15.89,31.78,9.08,2.27,18.16,0,24.97-6.81,9.08-9.08,22.7-15.89,36.32-18.16,11.35,0,20.43,6.81,27.24,15.89l2.27,2.27c0,2.27-4.54,18.16-47.68,52.22-13.62-11.35-29.51-18.16-45.41-18.16h-149.84c-13.62,0-27.24,4.54-38.6,11.35-38.59-27.24-40.87-40.86-40.87-45.4h0ZM908.69,376.26c0-9.08,9.08-18.16,18.16-18.16h149.84c9.08,0,18.16,9.08,18.16,18.16v20.43c0,9.08-9.08,18.16-18.16,18.16h-149.84c-9.08,0-18.16-9.08-18.16-18.16v-20.43ZM858.75,412.59c9.08,29.52,36.32,49.95,65.84,49.95h149.84c31.78,0,59.03-20.43,65.84-49.95,102.16,18.16,177.08,104.43,177.08,208.87v301.95c0,118.05-95.35,211.14-211.14,211.14h-211.14c-118.06,0-211.14-95.35-211.14-211.14v-299.68c-2.27-104.43,72.65-192.98,174.81-211.14h0Z"/>
  <path class="st0" d="M992.69,798.54h13.62c31.78,0,56.76,27.24,56.76,59.03s-24.97,56.76-56.76,56.76h-81.73c-13.62,0-24.97,11.35-27.24,24.97,0,6.81,2.27,13.62,6.81,18.16,4.54,4.54,11.35,9.08,18.16,9.08h56.76v34.05c0,13.62,11.35,24.97,24.97,24.97h0c13.62,0,24.97-11.35,24.97-24.97v-36.32c59.03-13.62,93.08-72.65,79.46-131.68-11.35-47.68-54.49-81.73-104.43-81.73h-13.62c-15.89,0-29.51-6.81-40.87-15.89-22.7-22.7-22.7-59.03-2.27-81.73,11.35-11.35,24.97-18.16,40.87-18.16v-11.35l2.27,11.35h81.73c13.62,0,24.97-11.35,27.24-24.97,0-13.62-11.35-24.97-24.97-27.24h-45.41v-34.05c0-13.62-11.35-24.97-24.97-24.97s-24.97,11.35-24.97,24.97h0v34.05c-59.03,6.81-102.16,61.3-95.35,120.33,9.08,54.49,54.49,95.35,108.97,95.35"/>
</svg>