<svg xmlns="http://www.w3.org/2000/svg" width="105" height="35" viewBox="0 0 105 35" fill="none">
  <rect x="42" y="3" width="1" height="1" rx="0.5" fill="#D9D9D9"/>
  <rect x="60" y="11" width="1" height="1" rx="0.5" fill="#D9D9D9"/>
  <rect x="32" y="12" width="1" height="1" rx="0.5" fill="#D9D9D9"/>
  <rect x="34" y="5" width="1" height="1" rx="0.5" fill="#D9D9D9"/>
  <rect x="57" width="1" height="1" rx="0.5" fill="#D9D9D9"/>
  <rect x="52" y="11" width="1" height="1" rx="0.5" fill="#D9D9D9"/>
  <rect x="66" y="23" width="1" height="1" rx="0.5" fill="#D9D9D9"/>
  <rect x="34" y="20" width="1" height="1" rx="0.5" fill="#D9D9D9"/>
  <rect x="26" y="2" width="1" height="1" rx="0.5" fill="#D9D9D9"/>
  <rect x="28" y="25" width="1" height="1" rx="0.5" fill="#D9D9D9"/>
  <rect x="18" y="12" width="1" height="1" rx="0.5" fill="#D9D9D9"/>
  <rect x="75" y="7" width="1" height="1" rx="0.5" fill="#D9D9D9"/>
  <rect x="70" y="3" width="1" height="1" rx="0.5" fill="#D9D9D9"/>
  <rect x="72" y="17" width="1" height="1" rx="0.5" fill="#D9D9D9"/>
  <rect x="79" y="27" width="1" height="1" rx="0.5" fill="#D9D9D9"/>
  <rect x="49" y="24" width="1" height="1" rx="0.5" fill="#D9D9D9"/>
  <rect x="53" y="27" width="1" height="1" rx="0.5" fill="#D9D9D9"/>
  <rect x="38" y="31" width="1" height="1" rx="0.5" fill="#D9D9D9"/>
  <rect x="16" y="24" width="1" height="1" rx="0.5" fill="#D9D9D9"/>
  <rect x="21" y="29" width="1" height="1" rx="0.5" fill="#D9D9D9"/>
  <rect x="63" y="30" width="1" height="1" rx="0.5" fill="#D9D9D9"/>
  <rect x="75" y="30" width="1" height="1" rx="0.5" fill="#D9D9D9"/>
  <rect x="102" y="29" width="1" height="1" rx="0.5" fill="#D9D9D9"/>
  <rect x="100" y="16" width="1" height="1" rx="0.5" fill="#D9D9D9"/>
  <rect x="92" y="11" width="1" height="1" rx="0.5" fill="#D9D9D9"/>
  <rect x="96" y="8" width="1" height="1" rx="0.5" fill="#D9D9D9"/>
  <rect x="88" width="1" height="1" rx="0.5" fill="#D9D9D9"/>
  <rect x="85" y="23" width="1" height="1" rx="0.5" fill="#D9D9D9"/>
  <rect x="85" y="12" width="1" height="1" rx="0.5" fill="#D9D9D9"/>
  <rect x="93" y="21" width="1" height="1" rx="0.5" fill="#D9D9D9"/>
  <rect x="7" y="14" width="1" height="1" rx="0.5" fill="#D9D9D9"/>
  <rect y="25" width="1" height="1" rx="0.5" fill="#D9D9D9"/>
  <rect x="2" y="8" width="1" height="1" rx="0.5" fill="#D9D9D9"/>
  <rect x="9" y="25" width="1" height="1" rx="0.5" fill="#D9D9D9"/>
  <rect x="86" y="34" width="1" height="1" rx="0.5" fill="#D9D9D9"/>
  <rect x="97" y="31" width="1" height="1" rx="0.5" fill="#D9D9D9"/>
  <rect x="98" width="1" height="1" rx="0.5" fill="#D9D9D9"/>
  <rect x="104" y="7" width="1" height="1" rx="0.5" fill="#D9D9D9"/>
  <rect x="8" width="1" height="1" rx="0.5" fill="#D9D9D9"/>
</svg>